<svg width="900" height="300" viewBox="0 0 900 300" xmlns="http://www.w3.org/2000/svg"><defs><linearGradient id="bg" x1="0%" y1="0%" x2="100%" y2="100%"><stop offset="0%" style="stop-color:#0d0d14"/><stop offset="100%" style="stop-color:#1a1a2e"/></linearGradient><marker id="arr" markerWidth="8" markerHeight="8" refX="6" refY="3" orient="auto"><path d="M0,0 L0,6 L8,3 z" fill="#29B5E8"/></marker></defs><rect width="900" height="300" fill="url(#bg)"/><text x="450" y="28" font-family="monospace" font-size="13" font-weight="bold" fill="#29B5E8" text-anchor="middle">CLOUD LAKEHOUSE — dbt + Snowflake + Airflow</text><rect x="20" y="110" width="110" height="55" rx="4" fill="#0a0a1a" stroke="#FF9900" stroke-width="1.5"/><text x="75" y="134" font-family="monospace" font-size="10" fill="#FF9900" text-anchor="middle">AWS S3</text><text x="75" y="150" font-family="monospace" font-size="9" fill="#7b7a99" text-anchor="middle">Raw Zone</text><rect x="180" y="110" width="110" height="55" rx="4" fill="#0a0a1a" stroke="#29B5E8" stroke-width="1.5"/><text x="235" y="134" font-family="monospace" font-size="10" fill="#29B5E8" text-anchor="middle">SNOWPIPE</text><text x="235" y="150" font-family="monospace" font-size="9" fill="#7b7a99" text-anchor="middle">Auto-ingest</text><rect x="340" y="65" width="110" height="50" rx="4" fill="#0a0a1a" stroke="#CD7F32" stroke-width="1.5"/><text x="395" y="87" font-family="monospace" font-size="10" fill="#CD7F32" text-anchor="middle">🥉 BRONZE</text><text x="395" y="103" font-family="monospace" font-size="9" fill="#7b7a99" text-anchor="middle">RAW schema</text><rect x="340" y="160" width="110" height="50" rx="4" fill="#0a0a1a" stroke="#C0C0C0" stroke-width="1.5"/><text x="395" y="182" font-family="monospace" font-size="10" fill="#C0C0C0" text-anchor="middle">🥈 SILVER</text><text x="395" y="198" font-family="monospace" font-size="9" fill="#7b7a99" text-anchor="middle">dbt STAGING</text><rect x="500" y="112" width="110" height="50" rx="4" fill="#0a0a1a" stroke="#FFD700" stroke-width="2"/><text x="555" y="134" font-family="monospace" font-size="10" fill="#FFD700" text-anchor="middle">🥇 GOLD</text><text x="555" y="150" font-family="monospace" font-size="9" fill="#7b7a99" text-anchor="middle">dbt MARTS</text><rect x="340" y="240" width="270" height="35" rx="4" fill="#070710" stroke="#017CEE" stroke-width="1.5"/><text x="475" y="261" font-family="monospace" font-size="10" fill="#017CEE" text-anchor="middle">AIRFLOW — Orchestration DAGs</text><rect x="670" y="90" width="200" height="95" rx="4" fill="#070710" stroke="#FF694B" stroke-width="1"/><text x="770" y="113" font-family="monospace" font-size="10" fill="#FF694B" text-anchor="middle">BI TOOLS</text><text x="770" y="133" font-family="monospace" font-size="9" fill="#7b7a99" text-anchor="middle">Power BI</text><text x="770" y="149" font-family="monospace" font-size="9" fill="#7b7a99" text-anchor="middle">Tableau</text><text x="770" y="165" font-family="monospace" font-size="9" fill="#7b7a99" text-anchor="middle">Grafana</text><line x1="130" y1="137" x2="178" y2="137" stroke="#FF9900" stroke-width="1.5" marker-end="url(#arr)"/><line x1="290" y1="127" x2="338" y2="98" stroke="#29B5E8" stroke-width="1.5" marker-end="url(#arr)"/><line x1="290" y1="147" x2="338" y2="177" stroke="#29B5E8" stroke-width="1.5" marker-end="url(#arr)"/><line x1="450" y1="93" x2="498" y2="130" stroke="#FFD700" stroke-width="1.5" marker-end="url(#arr)"/><line x1="450" y1="185" x2="498" y2="150" stroke="#FFD700" stroke-width="1.5" marker-end="url(#arr)"/><line x1="610" y1="137" x2="668" y2="137" stroke="#FF694B" stroke-width="1.5" marker-end="url(#arr)"/></svg>